<?xml version="1.0" encoding="utf-8"?>
<!-- Generator: Adobe Illustrator 16.0.4, SVG Export Plug-In . SVG Version: 6.00 Build 0)  -->
<!DOCTYPE svg PUBLIC "-//W3C//DTD SVG 1.1//EN" "http://www.w3.org/Graphics/SVG/1.1/DTD/svg11.dtd">
<svg version="1.1" id="Layer_1" xmlns="http://www.w3.org/2000/svg" xmlns:xlink="http://www.w3.org/1999/xlink" x="0px" y="0px"
	 width="52px" height="52px" viewBox="0 0 52 52" enable-background="new 0 0 52 52" xml:space="preserve">
<circle fill="#F7F7F7" cx="26" cy="26" r="26"/>
<path fill="#292929" d="M34.6,38.25c0,0-1.115-1.355-2.043-2.555c4.055-1.168,5.6-3.754,5.6-3.754
	c-1.268,0.85-2.475,1.451-3.557,1.859c-1.547,0.664-3.033,1.104-4.484,1.357c-2.971,0.568-5.691,0.408-8.012-0.031
	c-1.763-0.35-3.279-0.852-4.547-1.357c-0.711-0.283-1.484-0.631-2.258-1.072c-0.093-0.062-0.186-0.096-0.279-0.158
	c-0.061-0.031-0.093-0.062-0.122-0.094c-0.558-0.316-0.867-0.535-0.867-0.535s1.483,2.523,5.412,3.723
	c-0.927,1.197-2.073,2.617-2.073,2.617c-6.835-0.223-9.433-4.795-9.433-4.795c0-10.16,4.454-18.394,4.454-18.394
	c4.455-3.407,8.692-3.312,8.692-3.312l0.309,0.377c-5.568,1.641-8.135,4.134-8.135,4.134s0.681-0.379,1.825-0.916
	c3.31-1.482,5.939-1.893,7.022-1.988c0.186-0.03,0.34-0.063,0.526-0.063c1.886-0.251,4.021-0.314,6.248-0.062
	c2.939,0.348,6.094,1.23,9.309,3.029c0,0-2.441-2.367-7.701-4.007l0.436-0.504c0,0,4.236-0.096,8.689,3.312
	c0,0,4.455,8.234,4.455,18.394C44.065,33.455,41.436,38.027,34.6,38.25z M20.217,23.517c-1.763,0-3.155,1.577-3.155,3.501
	s1.422,3.504,3.155,3.504c1.763,0,3.154-1.58,3.154-3.504C23.403,25.094,21.979,23.517,20.217,23.517 M31.506,23.517
	c-1.762,0-3.154,1.577-3.154,3.501s1.422,3.504,3.154,3.504c1.764,0,3.154-1.58,3.154-3.504S33.27,23.517,31.506,23.517"/>
</svg>
