<?xml version="1.0" encoding="utf-8"?>
<!-- Generator: Adobe Illustrator 16.0.4, SVG Export Plug-In . SVG Version: 6.00 Build 0)  -->
<!DOCTYPE svg PUBLIC "-//W3C//DTD SVG 1.1//EN" "http://www.w3.org/Graphics/SVG/1.1/DTD/svg11.dtd">
<svg version="1.1" id="Layer_1" xmlns="http://www.w3.org/2000/svg" xmlns:xlink="http://www.w3.org/1999/xlink" x="0px" y="0px"
	 width="52px" height="52px" viewBox="0 0 52 52" enable-background="new 0 0 52 52" xml:space="preserve">
<g>
	<g>
		<circle fill="#F7F7F7" cx="26" cy="26" r="26"/>
	</g>
</g>
<path fill="#292929" d="M43.349,16.622c-1.257,0.579-2.606,0.971-4.023,1.146c1.445-0.901,2.557-2.328,3.081-4.027
	c-1.355,0.834-2.854,1.44-4.448,1.767c-1.278-1.415-3.099-2.299-5.113-2.299c-3.868,0-7.005,3.259-7.005,7.279
	c0,0.57,0.062,1.125,0.181,1.657c-5.821-0.303-10.982-3.2-14.437-7.604c-0.603,1.076-0.949,2.325-0.949,3.66
	c0,2.525,1.236,4.753,3.116,6.058c-1.148-0.038-2.228-0.365-3.172-0.911c0,0.03,0,0.061,0,0.092c0,3.527,2.414,6.469,5.618,7.137
	c-0.588,0.166-1.207,0.256-1.845,0.256c-0.452,0-0.891-0.046-1.318-0.132c0.891,2.893,3.478,4.997,6.543,5.054
	c-2.397,1.953-5.418,3.118-8.7,3.118c-0.564,0-1.122-0.036-1.67-0.103c3.1,2.065,6.781,3.271,10.737,3.271
	c12.885,0,19.93-11.092,19.93-20.71c0-0.316-0.008-0.629-0.021-0.942C41.221,19.364,42.41,18.082,43.349,16.622z"/>
</svg>
